# xmcd CD database file
#
# Track frame offsets:
#	150
#	16010
#	28199
#	39447
#	52897
#	63511
#	75108
#	88214
#	99740
#	110553
#	125557
#	136741
#	152192
#	168397
#	181311
#
# Disc length: 2661 seconds
#
# Revision: 0
# Processed by: cddbd v1.5.1PL2 Copyright (c) Steve Scherf et al.
# Submitted via: CDex 1.51
#
DISCID=b90a630f
DTITLE=Various Artist - Classic Country Early 70's
DYEAR=1999
DGENRE=Country
TTITLE0=01-  Kris Kristopherson - Why Me 
TTITLE1=02-  Marie Osmond - Paper Roses
TTITLE2=03-  Conway Twitty - Hello Darlin'
TTITLE3=04-  george jones and tammy wynette - we're  gonna hold on
TTITLE4=05-  Empty Arms - Sonny James
TTITLE5=06-  Donna Fargo - Happiest Girl In The Whole U.S.A.
TTITLE6=07-  Charlie Rich   The Most Beautiful Girl In The World
TTITLE7=08-  Sammi Smith - Help Me Make it Through the Night
TTITLE8=09-   Jerry Reed - When You're Hot You're Hot
TTITLE9=10-  Jeanne Pruett - Satin Sheets
TTITLE10=11-  Conway Twitty and Lorretta Lynn - Lead Me On
TTITLE11=12-  Tanya Tucker - Delta Dawn
TTITLE12=13-  Marty robbins-my woman, my woman, my wife
TTITLE13=14-  How Can I Unlove You - Lynn Anderson
TTITLE14=15-  Johnny Cash - Sunday Morning Coming Down
EXTD=YEAR: 1999
EXTT0=
EXTT1=
EXTT2=
EXTT3=
EXTT4=
EXTT5=
EXTT6=
EXTT7=
EXTT8=
EXTT9=
EXTT10=
EXTT11=
EXTT12=
EXTT13=
EXTT14=
PLAYORDER=
